<svg width="128" height="128" viewBox="0 0 128 128" fill="none" xmlns="http://www.w3.org/2000/svg">
<rect width="128" height="128" fill="url(#paint0_linear)"/>
<path d="M42.0621 58.5848C39.0957 60.4757 34.8915 58.5848 32.6909 54.3523C30.4903 50.1199 31.0816 45.1837 34.0481 43.3124C37.0146 41.4412 41.2252 43.3355 43.4387 47.5482C45.6523 51.7609 45.0319 56.7169 42.0621 58.5848Z" fill="white"/>
<path d="M42.0621 58.5848C39.0957 60.4757 34.8915 58.5848 32.6909 54.3523C30.4903 50.1199 31.0816 45.1837 34.0481 43.3124C37.0146 41.4412 41.2252 43.3355 43.4387 47.5482C45.6523 51.7609 45.0319 56.7169 42.0621 58.5848Z" fill="white"/>
<path d="M89.072 58.5848C92.0352 60.4757 96.2426 58.5848 98.4432 54.3523C100.644 50.1199 100.059 45.1837 97.0731 43.3124C94.0872 41.4412 89.9025 43.3355 87.7019 47.5482C85.5012 51.7609 86.1055 56.7169 89.072 58.5848Z" fill="white"/>
<path d="M89.072 58.5848C92.0352 60.4757 96.2426 58.5848 98.4432 54.3523C100.644 50.1199 100.059 45.1837 97.0731 43.3124C94.0872 41.4412 89.9025 43.3355 87.7019 47.5482C85.5012 51.7609 86.1055 56.7169 89.072 58.5848Z" fill="white"/>
<path d="M57.6068 45.2695C53.8163 46.256 49.7802 42.5662 48.5587 36.9986C47.3372 31.431 49.4377 26.1461 53.2282 25.1596C57.0187 24.173 61.0451 27.8628 62.2763 33.4271C63.5075 38.9915 61.3779 44.2763 57.6068 45.2695Z" fill="white"/>
<path d="M57.6068 45.2695C53.8163 46.256 49.7802 42.5662 48.5587 36.9986C47.3372 31.431 49.4377 26.1461 53.2282 25.1596C57.0187 24.173 61.0451 27.8628 62.2763 33.4271C63.5075 38.9915 61.3779 44.2763 57.6068 45.2695Z" fill="white"/>
<path d="M78.6896 25.4006C82.6449 26.1209 85.146 31.2412 84.2606 36.8319C83.3752 42.4225 79.5136 46.3689 75.555 45.652C71.5965 44.935 69.1212 39.8212 69.984 34.2339C70.8468 28.6465 74.7342 24.664 78.6896 25.4006Z" fill="white"/>
<path d="M78.6896 25.4006C82.6449 26.1209 85.146 31.2412 84.2606 36.8319C83.3752 42.4225 79.5136 46.3689 75.555 45.652C71.5965 44.935 69.1212 39.8212 69.984 34.2339C70.8468 28.6465 74.7342 24.664 78.6896 25.4006Z" fill="white"/>
<path d="M81.4839 77.1801C81.4839 77.1801 85.4032 75.8421 87.4156 73.9917C86.166 58.6062 74.3657 50.8314 64.1639 50.8314C56.4439 50.9893 48.8823 56.0176 44.8818 62.5521C45.9893 62.7528 47.0819 63.0308 48.152 63.3841C50.168 64.0507 52.1091 64.9326 53.9428 66.015C57.5523 68.1394 60.6578 70.7604 63.6921 73.3289C66.7265 75.8973 69.6962 78.4755 73.0052 80.5441C74.6524 81.5901 76.404 82.4555 78.2305 83.1256C80.0786 83.7942 82.0113 84.1895 83.9696 84.2997C81.9809 84.4078 79.9872 84.2251 78.0495 83.7571C76.0973 83.2775 74.2006 82.5885 72.3912 81.7017C68.7558 79.9521 65.4307 77.6501 62.1475 75.4533C58.8643 73.2565 55.6038 71.0729 52.1849 69.5338C50.5166 68.7744 48.7736 68.1978 46.9854 67.8138C45.5645 67.5243 44.1172 67.3898 42.6682 67.4126C42.6682 67.4357 42.652 67.4554 42.6456 67.4784C32.4826 67.4784 24 75.7328 24 85.3652C24 94.9022 30.925 102.598 39.9247 102.598H66.2337H92.5427C99.2512 102.598 105 97.6219 105 89.8969C105 82.0891 98.8103 77.4238 89.7122 76.7877C86.0449 76.5313 82.23 77.1801 81.4839 77.1801Z" fill="white"/>
<defs>
<linearGradient id="paint0_linear" x1="64" y1="0" x2="64" y2="128" gradientUnits="userSpaceOnUse">
<stop stop-color="#5FB6B9"/>
<stop offset="1" stop-color="#35A9AD"/>
</linearGradient>
</defs>
</svg>
